<svg id="Livello_1" data-name="Livello 1" xmlns="http://www.w3.org/2000/svg" viewBox="0 0 275.29 384"><title>cart</title><path d="M169.29,256H-42a32,32,0,0,1-31.88-34.81L-54.39.39A31.83,31.83,0,0,1-22.51-28.8H-2.75V-61.6A66.47,66.47,0,0,1,63.65-128,66.47,66.47,0,0,1,130-61.6v32.8h19.76a6.4,6.4,0,0,1,6.4,6.4,6.4,6.4,0,0,1-6.4,6.4H130V12.8a6.4,6.4,0,1,1-12.8,0V-16h-84a6.4,6.4,0,0,1-6.4-6.4,6.4,6.4,0,0,1,6.4-6.4h84V-61.6a53.66,53.66,0,0,0-53.6-53.6A53.66,53.66,0,0,0,10-61.6V12.8a6.4,6.4,0,1,1-12.8,0V-16H-22.51A19.1,19.1,0,0,0-41.64,1.51l-19.48,220.8A19.18,19.18,0,0,0-42,243.2H169.29a19.18,19.18,0,0,0,19.13-20.89L168.93,1.51A6.4,6.4,0,1,1,181.68.39l19.48,220.8A32,32,0,0,1,169.29,256h0ZM26.84,200.8h-46.4a6.4,6.4,0,0,0-6.4,6.4,6.4,6.4,0,0,0,6.4,6.4h46.4a6.4,6.4,0,1,0,0-12.8h0Zm0-32h-46.4a6.4,6.4,0,0,0-6.4,6.4,6.4,6.4,0,0,0,6.4,6.4h46.4a6.4,6.4,0,1,0,0-12.8h0Zm0,0" transform="translate(74 128)"/></svg>