<svg id="Livello_1" data-name="Livello 1" xmlns="http://www.w3.org/2000/svg" viewBox="0 0 15.32 12.94"><defs><style>.cls-1{fill:none;stroke:#fff;stroke-miterlimit:10;stroke-width:0.75px;}</style></defs><title>icon-white-3</title><path class="cls-1" d="M273.24,1846a4.25,4.25,0,0,0-1.22-2.78,3.85,3.85,0,0,0-2.74-1.17,4.54,4.54,0,0,0-3.2,1.86l-0.1.11-0.05-.06a4.53,4.53,0,0,0-3.27-1.91,3.85,3.85,0,0,0-2.74,1.17,4.25,4.25,0,0,0-1.22,2.78,4.71,4.71,0,0,0,.84,2.94,19.59,19.59,0,0,0,3.15,3.21c1.13,1,2.62,2.09,3.29,2.09s2.16-1.14,3.29-2.09a19.43,19.43,0,0,0,3.14-3.22A4.75,4.75,0,0,0,273.24,1846Z" transform="translate(-258.3 -1841.65)"/></svg>