<svg id="Layer_1" data-name="Layer 1" xmlns="http://www.w3.org/2000/svg" xmlns:xlink="http://www.w3.org/1999/xlink" viewBox="0 0 204.44 168.14"><defs><style>.cls-1,.cls-3,.cls-4{fill:none;}.cls-2{clip-path:url(#clip-path);}.cls-3,.cls-4{stroke:#000002;stroke-miterlimit:10;}.cls-4{stroke-width:5px;}</style><clipPath id="clip-path" transform="translate(-317.5 -213.78)"><rect class="cls-1" x="320" y="216.28" width="199.92" height="164"/></clipPath></defs><title>love</title><g class="cls-2"><path class="cls-3" d="M497.8,301.76" transform="translate(-317.5 -213.78)"/></g><path class="cls-4" d="M519.35,269a56.32,56.32,0,0,0-16.76-37.17,53.26,53.26,0,0,0-37.52-15.6c-21,0-35.79,16.18-43.76,24.88l-1.42,1.54-0.75-.85c-7.29-8.3-22.45-25.57-44.76-25.57a53.25,53.25,0,0,0-37.52,15.6A56.3,56.3,0,0,0,320.1,269c-0.75,14,2.8,26.1,11.51,39.32,7.81,11.85,28.14,30.58,43.18,43,15.46,12.79,35.81,28,45,28s29.63-15.21,45-28c14.92-12.39,35.14-31.1,43-43.09,5.86-8.91,12.47-21.44,11.52-39.31h0Z" transform="translate(-317.5 -213.78)"/></svg>