<svg id="Livello_1" data-name="Livello 1" xmlns="http://www.w3.org/2000/svg" viewBox="0 0 69.17 11.15"><defs><style>.cls-1{fill:#00626f;}</style></defs><title>stars-5</title><polygon class="cls-1" points="6.03 0 4.22 3.74 0 4.26 3.1 7.09 2.3 11.15 6.03 9.15 9.76 11.15 8.96 7.09 12.06 4.26 7.84 3.74 6.03 0"/><polygon class="cls-1" points="20.32 0 18.52 3.74 14.29 4.26 17.4 7.09 16.6 11.15 20.32 9.15 24.05 11.15 23.25 7.09 26.36 4.26 22.13 3.74 20.32 0"/><polygon class="cls-1" points="34.62 0 32.81 3.74 28.59 4.26 31.69 7.09 30.89 11.15 34.62 9.15 38.35 11.15 37.55 7.09 40.65 4.26 36.43 3.74 34.62 0"/><polygon class="cls-1" points="48.91 0 47.1 3.74 42.88 4.26 45.98 7.09 45.19 11.15 48.91 9.15 52.64 11.15 51.84 7.09 54.94 4.26 50.72 3.74 48.91 0"/><polygon class="cls-1" points="63.21 0.08 61.42 3.77 57.25 4.29 60.31 7.08 59.52 11.09 63.21 9.12 66.89 11.09 66.1 7.08 69.17 4.29 65 3.77 63.21 0.08"/></svg>