<svg id="Livello_1" data-name="Livello 1" xmlns="http://www.w3.org/2000/svg" viewBox="0 0 71.74 12.05"><defs><style>.cls-1{fill:#00626f;}.cls-2{fill:none;stroke:#00626f;stroke-width:0.5px;}</style></defs><title>stars-2</title><polygon class="cls-1" points="6.03 0.49 4.22 4.24 0 4.75 3.1 7.58 2.3 11.64 6.03 9.64 9.76 11.64 8.96 7.58 12.06 4.75 7.84 4.24 6.03 0.49"/><polygon class="cls-1" points="20.32 0.49 18.52 4.24 14.29 4.75 17.4 7.58 16.6 11.64 20.32 9.64 24.05 11.64 23.25 7.58 26.36 4.75 22.13 4.24 20.32 0.49"/><polygon class="cls-2" points="65.21 0.57 63.42 4.27 59.44 4.78 62.31 7.57 61.52 11.58 65.21 9.61 68.89 11.58 68.1 7.57 71.17 4.78 67 4.27 65.21 0.57"/><polyline class="cls-2" points="44.25 4.78 47.31 7.57 46.52 11.58 50.21 9.61 53.89 11.58 53.1 7.57 56.17 4.78 51.99 4.27 50.21 0.57 48.42 4.27 44.25 4.78"/><polyline class="cls-2" points="29.25 4.78 32.31 7.57 31.52 11.58 35.21 9.61 38.89 11.58 38.1 7.57 41.17 4.78 36.99 4.27 35.21 0.57 33.42 4.27 29.25 4.78"/></svg>