<svg id="Livello_1" data-name="Livello 1" xmlns="http://www.w3.org/2000/svg" viewBox="0 0 69.74 12.05"><defs><style>.cls-1{fill:#00626f;}.cls-2{fill:none;stroke:#00626f;stroke-width:0.5px;}</style></defs><title>stars-4</title><polygon class="cls-1" points="6.03 0.49 4.22 4.24 0 4.75 3.1 7.58 2.3 11.64 6.03 9.64 9.76 11.64 8.96 7.58 12.06 4.75 7.84 4.24 6.03 0.49"/><polygon class="cls-1" points="20.32 0.49 18.52 4.24 14.29 4.75 17.4 7.58 16.6 11.64 20.32 9.64 24.05 11.64 23.25 7.58 26.36 4.75 22.13 4.24 20.32 0.49"/><polygon class="cls-1" points="34.62 0.49 32.81 4.24 28.59 4.75 31.69 7.58 30.89 11.64 34.62 9.64 38.35 11.64 37.55 7.58 40.65 4.75 36.43 4.24 34.62 0.49"/><polygon class="cls-1" points="48.91 0.49 47.1 4.24 42.88 4.75 45.98 7.58 45.19 11.64 48.91 9.64 52.64 11.64 51.84 7.58 54.94 4.75 50.72 4.24 48.91 0.49"/><polygon class="cls-2" points="63.21 0.57 61.42 4.27 57.25 4.78 60.31 7.57 59.52 11.58 63.21 9.61 66.89 11.58 66.1 7.57 69.17 4.78 65 4.27 63.21 0.57"/></svg>