<svg id="Livello_1" data-name="Livello 1" xmlns="http://www.w3.org/2000/svg" viewBox="0 0 70.74 12.05"><defs><style>.cls-1{fill:#00626f;}.cls-2{fill:none;stroke:#00626f;stroke-width:0.5px;}</style></defs><title>stars-3</title><polygon class="cls-1" points="6.03 0.49 4.22 4.24 0 4.75 3.1 7.58 2.3 11.64 6.03 9.64 9.76 11.64 8.96 7.58 12.06 4.75 7.84 4.24 6.03 0.49"/><polygon class="cls-1" points="20.32 0.49 18.52 4.24 14.29 4.75 17.4 7.58 16.6 11.64 20.32 9.64 24.05 11.64 23.25 7.58 26.36 4.75 22.13 4.24 20.32 0.49"/><polygon class="cls-1" points="34.62 0.49 32.81 4.24 28.59 4.75 31.69 7.58 30.89 11.64 34.62 9.64 38.35 11.64 37.55 7.58 40.65 4.75 36.43 4.24 34.62 0.49"/><polygon class="cls-2" points="64.21 0.57 62.42 4.27 58.44 4.78 61.31 7.57 60.52 11.58 64.21 9.61 67.89 11.58 67.1 7.57 70.17 4.78 66 4.27 64.21 0.57"/><polyline class="cls-2" points="43.25 4.78 46.31 7.57 45.52 11.58 49.21 9.61 52.89 11.58 52.1 7.57 55.17 4.78 50.99 4.27 49.21 0.57 47.42 4.27 43.25 4.78"/></svg>